<?xml version="1.0" encoding="UTF-8"?>
<svg id="Layer_1" xmlns="http://www.w3.org/2000/svg" version="1.1" viewBox="0 0 256 256">
  <!-- Generator: Adobe Illustrator 29.5.1, SVG Export Plug-In . SVG Version: 2.1.0 Build 141)  -->
  <defs>
    <style>
      .st0 {
        fill: #6fb8e2;
      }

      .st1 {
        fill: #e1f5ff;
      }
    </style>
  </defs>
  <rect class="st1" width="256" height="256"/>
  <path class="st0" d="M180.99,157.31c-.61-1.09-.37-2.45.56-3.25,3.39-2.96,6.69-5.81,9.87-8.83,1.84-1.73,3.55-1.95,5.84-1.01,10.4,4.13,38.61,15.23,38.61,15.23,0,0-71.23-70.99-71.01-70.99.08,0-.16-.05-.21,0-15.6,18.03-30.64,35.49-46.11,53.41-2.96,3.41-3.6,3.47-7.01.53-6.35-5.44-12.67-10.91-19.28-16.61-.05-.05-.16-.05-.21,0-10.03,12.59-19.87,25.04-29.73,37.76-2.03,2.72-5.01,3.76-7.63,1.89-2.11-1.49-10.24-8.83-12.45-8.99s-21.23,8.91-25.97,10.45c-2.64.88-4.43.43-5.09-.4-.96-1.17-.64-2.93.53-4.32,24.61-29.01,48.85-58.35,73.12-87.65,1.73-2.11,3.49-2.8,5.76-.72,10.77,10.27,22.29,19.71,32.77,30.24.91.91.93,2.4.03,3.33h0c-.96,1.01-2.56,1.07-3.6.13-10.4-9.49-20.88-19.04-31.47-28.69-.05-.05-.16-.05-.21,0-22.64,27.07-45.63,54.19-68.16,81.12-.08.11,0,.27.16.21,4.4-1.63,15.23-6.27,19.57-8.24,4.03-1.81,4.72-.56,9.81,3.25,2.45,1.84,4.21,3.36,6.21,4.77,1.04.75,2.96.13,3.76-.85,9.71-12.16,19.25-25.04,28.88-37.17,2.59-3.28,3.57-3.41,6.72-.72,6.45,5.52,12.85,11.07,19.63,16.91.05.05.16.05.19,0,15.76-18.24,30.72-35.63,46.27-53.6,2.99-3.44,3.84-3.49,6.91-.37,25.2,25.71,51.47,51.55,76.19,77.73,2.67,2.83.43,6.61-3.57,4.99-13.39-5.47-28.72-11.33-42.72-16.85-2.08-.83-3.49-.64-5.12.91-2.53,2.43-5.12,4.85-7.81,7.09-1.28,1.07-3.2.69-4-.75h0v.05Z"/>
</svg>